<svg id="Capa_1" enable-background="new 0 0 512 512" height="512" viewBox="0 0 512 512" width="512" xmlns="http://www.w3.org/2000/svg"><g id="XMLID_1696_"><circle id="XMLID_1629_" cx="128" cy="61.555" fill="#ffee80" r="20"/><circle id="XMLID_1628_" cx="384" cy="61.555" fill="#ffee80" r="20"/><g id="XMLID_1572_"><path id="XMLID_1573_" d="m112.187 464.001-13.743-13.742c-4.126-4.126-6.444-9.722-6.444-15.557v-67.113h44v58l7.299 7.299c8.592 8.592 8.592 22.521 0 31.113-8.591 8.591-22.52 8.592-31.112 0z" fill="#66e0f7"/></g><path id="XMLID_1568_" d="m256.127 463.555c-12.15 0-22-9.85-22-22v-74h44v74c0 12.151-9.85 22-22 22z" fill="#66e0f7"/><path id="XMLID_1557_" d="m411.127 247.682c0-85.674-69.453-155.127-155.127-155.127s-155.127 69.453-155.127 155.127z" fill="#ccf5fc"/><path id="XMLID_1485_" d="m466 367.555h-420c-14.059-14.059-21.941-21.941-36-36l36-36h420l36 36c-14.059 14.059-21.941 21.941-36 36z" fill="#ff7b79"/><path id="XMLID_1484_" d="m76 247.555h360v48h-360z" fill="#c193dc"/><g id="XMLID_1571_"><path id="XMLID_2731_" d="m400.067 464.001 13.743-13.742c4.126-4.126 6.444-9.722 6.444-15.557v-67.113h-44v58l-7.299 7.299c-8.592 8.592-8.592 22.521 0 31.113 8.591 8.591 22.52 8.592 31.112 0z" fill="#66e0f7"/></g><g id="XMLID_514_"><path id="XMLID_555_" d="m509.071 324.484-36-36c-1.875-1.875-4.419-2.929-7.071-2.929h-20v-38c0-5.522-4.477-10-10-10h-15.193c-2.31-37.995-17.524-72.557-41.309-99.356l11.573-11.572c1.875-1.875 2.929-4.419 2.929-7.071v-29.72c11.639-4.128 20-15.244 20-28.28 0-16.542-13.458-30-30-30s-30 13.458-30 30c0 13.036 8.361 24.152 20 28.28v25.578l-8.652 8.651c-29.146-25.812-67.446-41.509-109.348-41.509s-80.202 15.697-109.349 41.509l-8.651-8.652v-25.578c11.639-4.128 20-15.244 20-28.28 0-16.542-13.458-30-30-30s-30 13.458-30 30c0 13.036 8.361 24.152 20 28.28v29.72c0 2.652 1.054 5.196 2.929 7.071l11.572 11.572c-23.785 26.799-38.998 61.361-41.309 99.356h-15.192c-5.523 0-10 4.478-10 10v38h-20c-2.652 0-5.196 1.054-7.071 2.929l-36 36c-1.876 1.877-2.929 4.42-2.929 7.073 0 2.652 1.054 5.196 2.929 7.071l36 36c1.875 1.875 4.419 2.929 7.071 2.929h36v57.146c0 8.548 3.329 16.584 9.373 22.628l13.742 13.742c6.044 6.044 14.08 9.372 22.627 9.372 8.548 0 16.583-3.328 22.627-9.372s9.373-14.08 9.373-22.628-3.329-16.583-9.373-22.627l-4.371-4.37v-43.892h78.127v64c0 17.645 14.355 32 32 32s32-14.355 32-32v-64h78.127v43.892l-4.37 4.37c-6.044 6.044-9.373 14.079-9.373 22.627s3.329 16.584 9.373 22.628 14.08 9.372 22.627 9.372 16.583-3.328 22.628-9.372l13.743-13.742c6.044-6.044 9.373-14.08 9.373-22.628v-57.146h35.747c2.652 0 5.196-1.054 7.071-2.929l36-36c1.875-1.875 2.929-4.419 2.929-7.071 0-2.653-1.053-5.196-2.929-7.072zm-372.843 132.446c-2.266 2.267-5.28 3.515-8.485 3.515s-6.218-1.248-8.485-3.515h-.001l-13.743-13.742c-2.267-2.267-3.515-5.28-3.515-8.485v-57.113h24v48c0 2.652 1.053 5.195 2.929 7.071l7.3 7.3c2.267 2.267 3.515 5.279 3.515 8.484 0 3.204-1.248 6.218-3.515 8.485zm274.026-22.228c0 3.205-1.248 6.219-3.515 8.485l-13.743 13.742h-.001c-2.267 2.267-5.28 3.515-8.485 3.515s-6.219-1.248-8.485-3.515c-2.267-2.267-3.515-5.28-3.515-8.485s1.248-6.218 3.515-8.484l7.299-7.3c1.875-1.876 2.929-4.419 2.929-7.071v-48h24v57.113zm-26.254-383.146c5.514 0 10 4.486 10 10s-4.486 10-10 10-10-4.486-10-10 4.486-10 10-10zm-256 0c5.514 0 10 4.486 10 10s-4.486 10-10 10-10-4.486-10-10 4.486-10 10-10zm-42 206h125c5.523 0 10-4.478 10-10s-4.477-10-10-10h-99.768c5.217-75.316 68.149-135 144.768-135s139.551 59.684 144.768 135h-99.768c-5.523 0-10 4.478-10 10s4.477 10 10 10h125v28h-340zm182.127 184c0 6.617-5.383 12-12 12s-12-5.383-12-12v-64h24zm193.731-84h-411.716l-26-26 26-26h411.716l26 26z"/><path id="XMLID_709_" d="m256 237.56c-2.64 0-5.21 1.061-7.07 2.931-1.86 1.85-2.93 4.43-2.93 7.069 0 2.63 1.07 5.21 2.93 7.07s4.44 2.93 7.07 2.93 5.21-1.069 7.07-2.93c1.86-1.86 2.93-4.44 2.93-7.07 0-2.64-1.07-5.21-2.93-7.069-1.86-1.871-4.44-2.931-7.07-2.931z"/></g></g></svg>